<svg xmlns="http://www.w3.org/2000/svg" viewBox="0 0 720 470" font-family="'Segoe UI','DejaVu Sans',Verdana,sans-serif">
  <defs>
    <marker id="amsg" viewBox="0 0 10 10" refX="9" refY="5" markerWidth="7" markerHeight="7" orient="auto-start-reverse">
      <path d="M0,0 L10,5 L0,10 z" fill="#566673"/>
    </marker>
  </defs>

  <!-- lifelines -->
  <g stroke="#b9c4cc" stroke-width="1.2" stroke-dasharray="4 4">
    <line x1="110" y1="76" x2="110" y2="408"/>
    <line x1="360" y1="76" x2="360" y2="408"/>
    <line x1="610" y1="76" x2="610" y2="408"/>
  </g>

  <!-- participants -->
  <rect x="45" y="30" width="130" height="44" rx="6" fill="#e8f4ef" stroke="#009568" stroke-width="1.5"/>
  <text x="110" y="58" text-anchor="middle" font-size="14" fill="#3d3d3d">Cache</text>
  <rect x="295" y="30" width="130" height="44" rx="6" fill="#009568" stroke="#00795a" stroke-width="1.5"/>
  <text x="360" y="58" text-anchor="middle" font-size="14" font-weight="600" fill="#fff">Exosphere</text>
  <rect x="545" y="30" width="130" height="44" rx="6" fill="#e8f4ef" stroke="#009568" stroke-width="1.5"/>
  <text x="610" y="58" text-anchor="middle" font-size="14" fill="#3d3d3d">Host</text>

  <!-- Discover -->
  <text x="485" y="103" text-anchor="middle" font-size="13" fill="#3d3d3d">Discover</text>
  <line x1="362" y1="110" x2="608" y2="110" stroke="#566673" stroke-width="1.5" marker-end="url(#amsg)"/>

  <!-- response -->
  <text x="485" y="133" text-anchor="middle" font-size="13" fill="#3d3d3d">OS, version, package manager</text>
  <line x1="608" y1="140" x2="362" y2="140" stroke="#566673" stroke-width="1.5" stroke-dasharray="5 4" marker-end="url(#amsg)"/>

  <!-- loop frame -->
  <rect x="80" y="160" width="585" height="250" rx="2" fill="none" stroke="#009568" stroke-width="1.3"/>
  <path d="M80,160 h64 v14 l-8,8 H80 z" fill="#009568"/>
  <text x="98" y="177" font-size="12" font-weight="700" fill="#fff">loop</text>
  <text x="158" y="177" font-size="12" font-style="italic" fill="#009568">Refresh cycle</text>

  <!-- opt frame -->
  <rect x="305" y="192" width="345" height="66" rx="2" fill="none" stroke="#2ea6e8" stroke-width="1.2"/>
  <path d="M305,192 h56 v14 l-8,8 H305 z" fill="#2ea6e8"/>
  <text x="320" y="209" font-size="12" font-weight="700" fill="#fff">opt</text>
  <text x="373" y="209" font-size="12" font-style="italic" fill="#1f7fb5">Optional</text>

  <!-- Repo Sync -->
  <text x="485" y="237" text-anchor="middle" font-size="13" fill="#3d3d3d">Repo Sync</text>
  <line x1="362" y1="244" x2="608" y2="244" stroke="#566673" stroke-width="1.5" marker-end="url(#amsg)"/>

  <!-- Refresh -->
  <text x="485" y="293" text-anchor="middle" font-size="13" fill="#3d3d3d">Refresh (query updates)</text>
  <line x1="362" y1="300" x2="608" y2="300" stroke="#566673" stroke-width="1.5" marker-end="url(#amsg)"/>

  <!-- Available updates -->
  <text x="485" y="323" text-anchor="middle" font-size="13" fill="#3d3d3d">Available updates</text>
  <line x1="608" y1="330" x2="362" y2="330" stroke="#566673" stroke-width="1.5" stroke-dasharray="5 4" marker-end="url(#amsg)"/>

  <!-- Store results -->
  <text x="235" y="363" text-anchor="middle" font-size="13" fill="#3d3d3d">Store results</text>
  <line x1="358" y1="370" x2="112" y2="370" stroke="#566673" stroke-width="1.5" marker-end="url(#amsg)"/>

  <!-- note -->
  <rect x="90" y="420" width="540" height="40" rx="3" fill="#ccddf3" stroke="#7ba0cf" stroke-width="1.2"/>
  <text x="360" y="437" text-anchor="middle" font-size="12.5" fill="#003274">Status and reports are served from the cache,</text>
  <text x="360" y="453" text-anchor="middle" font-size="12.5" fill="#003274">with no host access required</text>
</svg>
